# xmcd
#
# Track frame offsets:
#	182
#	22520
#	44420
#	66025
#	119252
#	130767
#	141725
#	153740
#	166045
#	176782
#	187087
#	197585
#	207830
#	218872
#	228962
#	240067
#	250740
#	262980
#
# Disc length: 3690 seconds
#
# Revision: 1
# Processed by: cddbd v1.5.2PL0 Copyright (c) Steve Scherf et al.
# Submitted via: audiograbber 1.83.01
#
DISCID=f60e6812
DTITLE=Tommy James and The Shondells - Tommy James and The Shondells - Yesterday and 
DTITLE=Today
DYEAR=1900
DGENRE=Blues
TTITLE0=Draggin' The Line
TTITLE1=Crystal Blue Persuasion
TTITLE2=Crimson And Clover
TTITLE3=Medley: a. Hanky Panky - b. I Think We're Alone Now - c. Money, Money
TTITLE4=Say I Am (What I Am)
TTITLE5=(Baby, Baby) I Can't Take It No More
TTITLE6=Mirage
TTITLE7=I Like The Way
TTITLE8=Run, Run Baby Run
TTITLE9=Gettin' Together
TTITLE10=Real Girl
TTITLE11=Love's Closin' In On Me
TTITLE12=Out Of The Blue
TTITLE13=Get Out Now
TTITLE14=(I'm) Taken
TTITLE15=One, Two, Three And Fell
TTITLE16=Somebody Cares
TTITLE17=Ball Of Fire
EXTD=
EXTT0=
EXTT1=
EXTT2=
EXTT3=
EXTT4=
EXTT5=
EXTT6=
EXTT7=
EXTT8=
EXTT9=
EXTT10=
EXTT11=
EXTT12=
EXTT13=
EXTT14=
EXTT15=
EXTT16=
EXTT17=
PLAYORDER=
